<svg width="22" height="17" viewBox="0 0 22 17" fill="none" xmlns="http://www.w3.org/2000/svg">
<path d="M8 16.0605C5.87827 16.0605 3.84344 15.2144 2.34315 13.7085C0.842855 12.2025 0 10.16 0 8.03024L0 0H5.33333V8.03024C5.33333 8.74016 5.61428 9.421 6.11438 9.92299C6.61448 10.425 7.29276 10.707 8 10.707C8.70724 10.707 9.38552 10.425 9.88562 9.92299C10.3857 9.421 10.6667 8.74016 10.6667 8.03024V0H16V8.03024C16 10.16 15.1571 12.2025 13.6569 13.7085C12.1566 15.2144 10.1217 16.0605 8 16.0605Z" fill="#4DE897"/>
<path d="M21.3328 10.707H7.99951V16.0605H21.3328V10.707Z" fill="#016938"/>
<g opacity="0.5">
<path opacity="0.5" d="M8 16.0605C5.87827 16.0605 3.84344 15.2144 2.34315 13.7085C0.842855 12.2025 0 10.16 0 8.03024L0 0H5.33333V8.03024C5.33333 8.74016 5.61428 9.421 6.11438 9.92299C6.61448 10.425 7.29276 10.707 8 10.707C8.70724 10.707 9.38552 10.425 9.88562 9.92299C10.3857 9.421 10.6667 8.74016 10.6667 8.03024V0H16V8.03024C16 10.16 15.1571 12.2025 13.6569 13.7085C12.1566 15.2144 10.1217 16.0605 8 16.0605Z" fill="#4DE897"/>
</g>
</svg>
